<svg xmlns="http://www.w3.org/2000/svg" id="uuid-4d48c027-86bc-47a4-b23a-f988dfd4ebc2" viewBox="0 0 96.45 112"><defs><style>.uuid-f54651a3-0b04-4cb7-87a6-2decda3ed95e{fill:#ebd2d9;}.uuid-0a2e8045-98c7-4d9a-b77a-58e5c2c9a89e{fill:#4d5558;}.uuid-af9b091b-7d56-417c-b08c-660b8ee05b67{fill:#e3bec8;}.uuid-2f2b441b-f441-49b7-ab5e-43ad3426206b{fill:#bce0e5;}.uuid-5e9443de-5461-43aa-bcfa-cd97818b139b{fill:#6d7679;}.uuid-6eb71991-b512-4e2e-aacb-1cb130fc4003{fill:#973e5d;}.uuid-ffffb8a5-e0ba-4f38-845f-6dbada134e3c{fill:#dedddd;}.uuid-8628f877-332e-4a6b-9b95-90527b899949{fill:#a9abae;}.uuid-1655ec09-99cc-4b41-883e-ce310a49f5cd{fill:#ecd4da;}.uuid-6c5c8ea2-3263-49ba-a051-c83d7a482663{fill:#abadb0;}.uuid-86368cf2-7781-4fb3-9f71-8e5ae32225c8{fill:#454647;}.uuid-47392638-6c85-469a-9375-cb54ae0f214f{fill:#6a0532;}.uuid-8a5fcdbc-eba5-4327-961f-1ff807425030{fill:#eed8de;}.uuid-f9b4b9eb-25b4-45ce-89db-607ac77cddc1{fill:#ead0d7;}.uuid-db232425-e337-48f6-9cae-e592164bceb9{fill:#e6c7cf;}.uuid-c61a4218-a548-4b0f-83d1-015c4e980abc{fill:#4d5559;}.uuid-7665e81a-7bf1-49ad-bbfd-2aaaff482972{fill:#e9cfd6;}.uuid-224a27a1-c753-42ff-ba70-7b8cb40c900d{fill:#384145;}.uuid-92bb5adf-b4a4-429e-8202-55b357141d27{fill:#e4c1ca;}.uuid-20500e84-c255-4b46-8bdb-d3790e81faac{fill:#802f54;}.uuid-688e36e2-a819-45ba-924a-3f5a92285523{fill:#dddcdd;}.uuid-8c933148-0d69-4b0c-83a5-cd739fd639ce{fill:#ebd1d8;}.uuid-b6fec43d-cb16-4a6e-806d-199b6041ebdc{fill:#a5738a;}.uuid-9c0fac08-8d75-4479-ba39-5bfbe9d11e0c{fill:#edd5dc;}.uuid-48669b5b-dfd1-4983-92eb-07a81a52e80d{fill:#ebd2d8;}.uuid-d1947cdc-ac0b-4211-8b14-887635c90e69{fill:#d1c1c7;}.uuid-6bb27c7e-cc70-4b58-b8ab-7b0368797722{fill:#cf8fa0;}.uuid-91fba54f-126e-4d2e-9fe6-78b2ea5de278{fill:#fbf8f9;}.uuid-62c6b2d3-60cb-4f66-875f-14b81992e79e{fill:#e9ced5;}.uuid-7fe3f8b0-cb1b-482e-9774-dfd939c769f6{fill:#d6ccd0;}.uuid-58f8c4bd-a1f5-4263-a907-e22fa8fc2239{fill:#4e5559;}.uuid-29ca34aa-dd6e-4712-b37d-b4cb61e122a2{fill:#843559;}.uuid-d4d8a319-6e80-42b6-9c48-61af2560d505{fill:#394246;}.uuid-5509ab28-2aae-44de-abea-1404800a8f4d{fill:#ce8d9e;}.uuid-24ecd645-ba04-4d59-a356-635ee854a3ec{fill:#823357;}.uuid-13927964-4935-44ea-ad26-3d83c3c44f21{fill:#84e18e;}.uuid-7a20dfa8-6a29-4900-bf69-2f481f79fbed{fill:#ecd3da;}.uuid-ae37a2f8-43b5-4f42-a5d8-2fc57f04cb92{fill:#e5c4cd;}.uuid-68423bba-b73e-49e1-b14d-2016693fe5bd{fill:#a22848;}.uuid-972307d2-6a1a-4f67-9327-315a1e60cce3{fill:#dddbdc;}.uuid-7ea72349-96a2-49d8-86f9-5d4e1cb6c5a7{fill:#6a0533;}.uuid-07d19e7f-81f3-4403-9381-526f43ad9485{fill:#833357;}.uuid-9fb63293-4902-4c1a-b4ca-f8c17513a500{fill:#893a5c;}.uuid-5efa113d-daac-426e-bc52-32ef85674fb8{fill:#464e52;}.uuid-e1545073-5930-4416-89c9-8e1bf3f2cebd{fill:#777d7e;}.uuid-702ee123-0c28-4f98-ad6c-17b66e953948{fill:#ce8c9d;}.uuid-f8e2c47b-fc3a-4e1e-a968-190db27c1d47{fill:#ebd3d9;}.uuid-eddeadd4-9d9b-476b-afcf-41c97f3758ee{fill:#deddde;}.uuid-47af90d3-979c-4f44-89b5-d070350d1e25{fill:#f7eef0;}.uuid-f89293e4-4ee6-4216-8e14-b8720078f8db{fill:#525458;}.uuid-b5934701-30c1-447a-a368-5dd3137e1dbe{fill:#955572;}.uuid-ef43fd7a-6b56-457c-a1ac-e16bf19575ac{fill:#8bf795;}.uuid-32e1bbc2-c1bd-48bc-93f9-50f695b7fb4a{fill:#eed7dd;}.uuid-15cba893-71f2-4fa1-a90b-d0c9df80ba45{fill:#8c7780;}.uuid-f401e995-fee7-4654-a9b7-68948761e5af{fill:#484e52;}.uuid-aff03e0e-8d3a-41be-a3fb-eb85228dd131{fill:#434b4f;}.uuid-bbf6af18-0432-44ef-bb35-40adf62417b5{fill:#777d7f;}.uuid-a71125f0-b48c-47ee-87b7-70bcb7740708{fill:#a12445;}.uuid-fcbac354-1e27-4b4c-a939-8ba6c980810d{fill:#777c7e;}.uuid-ef1c38e3-d0ca-4021-8109-8bc4303f283d{fill:#9a607a;}.uuid-a194a2dd-cbeb-4377-afae-df0cdfe54470{fill:#485154;}.uuid-47c6c5a1-0a41-4750-aaa8-9011fd60827e{fill:#494f52;}.uuid-16165628-08df-4e05-bb71-1e43b19550c7{fill:#767c7e;}.uuid-56cc795d-f728-4b36-ac3e-3244a453ce5b{fill:#7dfe8e;}.uuid-91ac18f2-1b70-492d-89e5-0464fb1112ff{fill:#dedede;}.uuid-f07a3d75-944b-42f7-93c5-84542fb3201b{fill:#4f5357;}.uuid-1da298be-76e0-4a0d-a06e-588dee567066{fill:#9f2142;}.uuid-97658330-c9d5-4f2e-99b6-50c9e7a6308f{fill:#dec7ce;}.uuid-713e2c71-8243-4b94-a2a4-4eea365d9fcd{fill:#007862;}.uuid-48b062aa-3332-4ac1-acc9-c89429349ab6{fill:#505357;}.uuid-340c8c1c-c35d-4f6e-8c9e-2d6daee49d36{fill:#bcdfe4;}.uuid-fd3c1f04-9795-489c-9276-84f9a4814aba{fill:#833458;}.uuid-c9d74144-6e91-4b20-b377-b827e467c984{fill:#fefefe;}.uuid-8f3c2097-0563-44de-9c0a-0c074990131a{fill:#a22747;}.uuid-343130f4-bb45-4032-a186-5fa14914b258{fill:#aaabae;}.uuid-0293abe4-eca5-4a70-aa14-ed06843535ca{fill:#374044;}.uuid-77029e94-cccf-4860-ad9b-53be3c6d10b3{fill:#8bf895;}.uuid-fe286db2-12ea-442c-87bb-a613d00c359a{fill:#f6ebee;}.uuid-d0262527-9bb6-4731-ad1d-764cc553a894{fill:#e7c7cf;}.uuid-84238351-801b-4161-b459-38f025ed41a0{fill:#dbabb7;}.uuid-01ef43cc-4abc-461c-adc4-6bd3626dbfec{fill:#8c4464;}.uuid-682b1c3b-63c3-4d69-8d67-5044889487ac{fill:#dddbdb;}.uuid-b4956ecd-168c-4eca-b1af-ba356b845faf{fill:#474f52;}.uuid-f106621a-af81-465e-b683-c66def2cb04d{fill:#6d0b37;}.uuid-64d8c638-9e26-45f9-ae7a-9e6d3ba26878{fill:#6b0734;}.uuid-ad037266-f10b-4c77-806f-3b251fb89ad7{fill:#f5e9ec;}.uuid-cc5ee8b7-940f-49d9-b520-56efd3874ec9{fill:#485054;}.uuid-d4ca3249-6337-4092-af48-e126e3a95383{fill:#474d51;}.uuid-ebaafdbd-094a-4e42-972c-dc5bec2c801f{fill:#b6bab6;}.uuid-c8f0a3c2-2c4d-45aa-9413-6994eb0eab3f{fill:#c98395;}</style></defs><path class="uuid-86368cf2-7781-4fb3-9f71-8e5ae32225c8" d="M30.46,102.56c-4.03-2.82-7.79-5.89-11.2-9.37s-6.34-7.2-8.86-11.29c-5.61-9.1-7.7-17.88-8.8-28.43l-1.03-12.53C-.08,33.07-.16,25.2.26,17.32c5.74-4.75,12.13-8.54,18.91-11.41,18.35-7.79,39.07-7.88,57.49-.24,7,2.9,13.58,6.78,19.49,11.65.37,7.35.44,14.68.04,22.04l-.6,11.11c-.75,9.85-3.41,19.47-7.89,28.27-8.23,16.22-22.42,27.43-39.5,33.26-6.3-2.37-12.2-5.55-17.75-9.44h0Z"></path><path class="uuid-c9d74144-6e91-4b20-b377-b827e467c984" d="M31.82,99.33c-3.75-2.62-7.23-5.44-10.4-8.67-3.34-3.39-6.26-7.12-8.71-11.2-5.04-8.41-6.87-16.5-7.87-26.17l-.94-11.59c-.58-7.2-.65-14.4-.27-21.66,5.86-4.83,12.46-8.64,19.49-11.38,16.1-6.28,33.96-6.3,50.07-.02,7.06,2.73,13.68,6.57,19.55,11.4.35,6.97.4,13.86.03,20.78l-.55,10.11c-.7,9.1-3.17,17.99-7.3,26.12-7.65,15.1-20.84,25.54-36.73,30.97-5.83-2.19-11.27-5.13-16.38-8.7h0Z"></path><path class="uuid-1da298be-76e0-4a0d-a06e-588dee567066" d="M29.73,30.69l-.19.36c-1.35.86-2.54,1.87-3.59,3.04.1.09.09.18.03.3-.02.13-.1.25-.26.36-.07.26-.2.43-.38.49-.03.08-.06.08-.1,0l-.23.08c-.62-.34-1.59-.53-2.22-.16-1.19.68-2.55,4.39-2.95,5.64-.06.47-.22.86-.47,1.17.27.26-.04.69-.25.93.28.15.21.58-.03.73l-.05.21c-.38.21-.59.57-.62,1.08l-.2.06c.04.11.04.19,0,.24l-1.09.98.11,4.41c.05.11,2.07,1.06,2.19,1.07.08,0,1.31-.84,1.29-.92l-1.39-1.79c-.19-.33.12-1.36.35-1.64.1-.12,2.15-.23,2.33-.14.19.1.45.46.53.66.13.32-.28,1.47-.44,1.84l-.22.07.17.11c.07.66.56,1,1.48,1l1.62-2.99-.9-2.87-.02-.3c-.22-.18.1-.73.37-.66-.03-.16.05-.3.24-.43,1.26-1.69,2.71-4.87,2.02-6.97l.09-.23c.02-.24.31-.44.54-.48.1-.11.26-.05.46.17l3.59-2.56c.78.19,1.55.42,2.31.67l.07.22c.08.01.08.04,0,.09l.2.17c.02,1.32.17,2.62.48,3.9.15.68.48,1.17,1,1.47l.12.19c.35.05.84.82.66,1.12l.21.05c.26,1.43.81,2.68,1.68,3.76l-.05.25.18.11-.03.85,1.07.05.12.19.2.07.21,1.29,8.84-.44.12-.83.2-.1.14-.19,1.01-.04c.13-.24.2-.51.21-.8l.22-.14c-.23-.1-.22-.15.02-.22l.06-.25c.75-.56,1.26-1.34,1.53-2.33.14-.39.32-.56.56-.5-.09-.3.46-.81.75-.77.02-.15.13-.27.35-.34.17-.26.37-.39.58-.37.06-.34.24-.68.54-1,.42-.91.8-1.82,1.16-2.75l.23-.06c.15-.21.68-.23.84-.03.12-.24.4-.16.39.11h.52c2.54.88,4.98,1.99,7.32,3.34l.38.36.21-.03c.52.42,1.11.73,1.78.93l.07.24c7.66,4.11,14.74,9.33,21.06,15.44-1.07,6.12-2.96,12.12-5.71,17.72-7.14,14.72-19.8,24.9-35.15,30.14-5.53-2.08-10.7-4.86-15.52-8.24-3.15-2.21-6.14-4.56-8.88-7.27-7.52-7.34-12.78-16.05-15.05-26.37-.69-3.13-1.22-6.21-1.49-9.4l-.9-10.98c-.26-3.12-.51-6.16-.45-9.23-.05-.53-.07-1.15.03-1.66,7.84-1.35,15.85-1.88,23.79-1.24h-.01Z"></path><path class="uuid-713e2c71-8243-4b94-a2a4-4eea365d9fcd" d="M80.32,41.9l-.09-.21c.5-.76,1.05-1.49,1.64-2.18l.12-.31-.2-.15c0-.37-.09-.66-.27-.88-.64.5-1.28.99-2.04,1.29-.1.03-1.49-.59-1.58-.71-.06-.08-.13-1.51-.1-1.68.05-.3.4-.6.67-.76.77-.46,1.6-.2,2.4.07l.54-.8c-.02-.12-1.79-1.61-1.91-1.63-.14-.02-2.61.48-2.75.54l-1.43,1.38-.23-.04c-.09.26-.43.19-.39-.1-.25.03-.39.02-.63-.1-.24-.05-.46-.13-.66-.24-.02.31-.88.16-1.11.09l-.1-.19c-5.13-3.74-10.88-7.25-16.69-9.81l.03-.26c.71-.46,1.27-1.03,1.68-1.72.14-.4.34-.76.6-1.07l-.11-.26c.58-1.49.64-3.03.36-4.6l.13-.29-.24-.21c-.79-2.8-2.83-5.57-5.85-6.05l-.62-.25c-.33.14-.69.05-1.09-.26l-.38.12c-1.73-.26-3.52-.13-5.16.5l-.56.03c-.12.26-.34.45-.68.58l-1.05.84c-.22.33-.47.55-.77.68l-.04.2c-2.85.1-3.22,4.58-2.07,6.53l-.07.19c-10.05-2.15-20.26-2.33-30.59-.52,7.42-5.48,15.78-9.24,24.64-11.3,11.53-2.63,23.56-2.09,34.79,1.59,7.96,2.6,15.36,6.64,21.82,11.91.1.09.11.16.12.31.43,9.85.21,19.67-.6,29.51-.02.14-.08.11-.15.02-2.9-3.48-5.96-6.79-9.31-9.78h-.01Z"></path><path class="uuid-0293abe4-eca5-4a70-aa14-ed06843535ca" d="M51.47,10.74c.68.14,1.17.61,1.6,1.13,1.06,1.28,1.53,3.13,1.71,4.74l3.26.42.14.21c.17.72.19,1.47.22,2.24.04,1.08-.31,1.97-.59,2.92-.49.79-1.57,1.09-2.45,1.27l-.25-.16-.17.2-1.37.1-.56,1.77-.22.07h-1.12l-.12-.17.86-1.78c-1.56-.18-3.05-.67-4.39-1.49-1.03-.64-2.86-2.21-3.36-3.29-.13-.28.35-1.56.52-1.88.28-.51.67-.96,1.19-1.23.68-.35,3.01-.44,3.68-.21.15.05.24.13.35.25l.15-.16,2.89.65c.29-2.17-1.5-4.15-3.04-5.57l-.03-.28c.37.07.73.11,1.09.26h0Z"></path><path class="uuid-0293abe4-eca5-4a70-aa14-ed06843535ca" d="M38.42,26.59l.23.1,1.08,3.21.51,8.77.72-.38,2.94-2.35.96-.45c1.05-.05,2.09-.06,3.14-.02v-.84l.18-.13c-.07-.12-.06-.27.04-.45.15-1.99-.11-4.04-.39-6.02l.29-.05c.27.05.57.18.84.21.06.06.12.12.16.19s.09.13.1.2c.35,1.83.41,3.78.14,5.62.13.28.33.94-.02,1.07.16.07.21.21.13.42,1.49.04,2.34.76,3.17,1.91.56,1,1.21,1.92,1.93,2.8v.26c-.28.3-.44.65-.93.71l-.33-.12c-.65-1.01-1.26-2.06-1.81-3.13-.24-.42-.61-.88-1.09-1.01-1.76-.48-4.5-1.01-6.12-.02-.75.6-1.47,1.23-2.16,1.9-1.31,1.1-1.8,1.45-3.57,1.48-.77.01-1.83,0-2.59-.07l-.23-.17c-.33.03-.64-.29-.81-.54-.89-1.33-.88-3.75-.99-5.2.16-.18.4-.19.73-.01,2.8-1.39,4.24-4.55,3.48-7.58l.11-.32h.18s0,.01,0,.01Z"></path><path class="uuid-e1545073-5930-4416-89c9-8e1bf3f2cebd" d="M41.79,26.82l.32.34c1.12,2.9,3.21,5.28,5.8,6.97l.26.38.02,1.15-2.78-.03c-.58,0-1.03.16-1.47.52l-2.53,2.03c-.4.32-.79.63-1.35.73l-.51-8.96-1.12-3.35c1.13.05,2.26.07,3.38.22h0Z"></path><path class="uuid-6c5c8ea2-3263-49ba-a051-c83d7a482663" d="M55.96,29.09c.61.11,1.05,1.01,1.28,1.58.45,1.09.52,2.78.16,3.91l-.24.21-.23.33c-2.34,1.13-4.88,1.3-7.34.46-.05-.02-.1-.07-.14-.12s-.09-.12-.12-.18c0-.34.03-.68-.16-1.05.3-2.05.15-4.05-.22-6.03,2.34.3,4.66.73,7.02.89h0Z"></path><path class="uuid-0293abe4-eca5-4a70-aa14-ed06843535ca" d="M32.23,26.4l.31-.05c1.3,1.63,2.66,3.52,3.42,5.48.01.14-.02.3-.09.45.16.32-.31.84-.55,1.1-.27.3-.85.8-1.18,1.05l-.23-.02-2.34-.72-3.68,2.67-.4-.45-.26-.02c-.35-.47-.75-.89-1.19-1.26l-.05-.25c-.1-.06-.19-.21-.28-.33,1.17-1.38,2.62-2.35,4.04-3.37.14-.1.23-.08.21-.37-.1-1.68.78-3.29,2.29-3.92h0Z"></path><path class="uuid-bbf6af18-0432-44ef-bb35-40adf62417b5" d="M50.42,15.85c-.87-.19-1.85-.14-2.76-.15-1.79-.02-2.63,1.56-2.82,3.17,1.91,2.71,4.43,4.35,7.86,4.68l-1.03,2.12c-1.17,0-2.36-.21-3.46-.62-2.15-1.28-3.52-3.59-3.98-6.04-.07-.4-.11-.65.08-1l-.13-.02c-.16-.63-.26-1.29-.32-1.97l-.17-.14c-.13-.93-.68-2.18-1.64-2.47l-.17-.17c-.03.08-.06.07-.08-.01.62-.96,1.5-1.63,2.5-2.09.92-.11,1.97.44,2.77.91,1.45.84,2.57,1.96,3.38,3.43.02.05.02.11.02.17s-.02.14-.04.2h0Z"></path><path class="uuid-6c5c8ea2-3263-49ba-a051-c83d7a482663" d="M48.11,27.99c-.06-.02-.14.09-.12.2.36,1.83.48,3.62.44,5.49,0,.33-.03.63-.26.84-2.93-1.81-5.23-4.42-6.38-7.69l1.34.17,4.99.99h0Z"></path><path class="uuid-bbf6af18-0432-44ef-bb35-40adf62417b5" d="M73.76,41.62c-1.74.27-3.53.32-5.33.12-.17-.02-.34-.1-.42.04-.37-.2-1.61-.52-2.06-1.14-.47-.31-.98-1.05-.68-1.56-.23-.3-.42-.75.02-.93l.09-.18c2.29.06,4.58.16,6.87.27l.19.24c.04,1.1.57,2.07,1.31,2.86v.28s.01,0,.01,0Z"></path><path class="uuid-0293abe4-eca5-4a70-aa14-ed06843535ca" d="M61.44,33.65c1.05.51,3.45,1.64,4.03,2.64-.03.14-.11.33-.18.4l.03.24c-.43.51-.53,1.19-.58,1.84-.11.03-.18.14-.21.31-.14.19-.37.21-.68.08-1.17-.55-2.3-1.19-3.38-1.91l-.73-.31c-.4-.04-.73-.16-.98-.36-.33-.16,0-.52.21-.69.87-.55,1.53-1.31,2-2.28.21-.18.44-.27.47.06Z"></path><path class="uuid-6c5c8ea2-3263-49ba-a051-c83d7a482663" d="M72.19,35.28c.38-.02.8.16,1.21.1.5.02.44.27-.17.75-.44.52-.72,1.14-.84,1.85l-.21.09-6.69-.21-.1-.19c-.27-.16-.19-.88.17-.92,1.48-1.8,4.45-1.34,6.63-1.47h0Z"></path><path class="uuid-0293abe4-eca5-4a70-aa14-ed06843535ca" d="M44.74,24.54c.5.02,1,.15,1.5.4l1.44.43.31.28c.98.26,1.87.5,2.87.62l-.66,1.52-8-1.64.54-2.51,1.99.9h0Z"></path><path class="uuid-0293abe4-eca5-4a70-aa14-ed06843535ca" d="M41.78,13.23s.06.02.08.01c.15.01.22.09.3.2.37.53.84,2.27.69,2.89-.03.14-.07.23-.23.28l.17.12-.43,2.03c.09.5.08.96-.03,1.4.06.04.13.1.12.16s-.54,1.03-.63,1.14l-.23.02c-.76-.23-1.38-.8-1.99-1.32-.33-.29-.5-.98-.59-1.41-.32-1.49-.08-3.01.65-4.3.27-.47.63-.9,1.15-1.01l.97-.2h0Z"></path><path class="uuid-d4ca3249-6337-4092-af48-e126e3a95383" d="M48.2,25.05c-.06-.02-.14,0-.19-.02l-.31.07c-.44-.12-2.06-.68-2.34-.89-.09-.07-.12-.18-.15-.29-1.27-.7-2.54-1.46-3.62-2.43l.73-1.32c.12-.52.35-1.02.7-1.5l.25-.1c.25-.3.59-.48,1.02-.54.04.33.05.69.12,1.07.42,2.31,1.75,4.3,3.6,5.72.1.08.16.15.17.24h0Z"></path><path class="uuid-d4ca3249-6337-4092-af48-e126e3a95383" d="M80.86,36.38c-.63.05-1.27-.21-1.92-.12-.36.1-.65.48-.96.67l.05,1.71,1.43.64c.73-.37,1.36-.82,2.06-1.12.05.05.11.15.08.19-.21.26-1.77,1.96-1.92,2.01-.85-.23-1.68-.5-2.51-.82-.06,0-.53,1.08-.49,1.12.11.12,2.99.78,3.14.72l1.94-2.21.23.02c.01.15.11.22-.07.46-.42.55-1.24,1.65-1.59,2.24-.05.07-.19.21-.31.25l-4.09-.94-.14-.2c1.11-1.48,1.12-3.33-.27-4.62l-.03-.28c.17-.15.44-.11.8.1.72-.47,1.46-.93,2.21-1.36.24.04,2.1,1.05,2.27,1.22.08.09.1.2.12.31h0Z"></path><path class="uuid-f401e995-fee7-4654-a9b7-68948761e5af" d="M58.11,28.58c.52.21.91,1,1.12,1.52.56,1.36.37,2.86.16,4.28.07.39,1.67-2.82,1.68-2.89.09-.16.19-.18.34-.05.1.73.01,1.48.03,2.21-.6-.29-.54,1.31-2.27,2.31-.24.14-.38.36-.41.6.03.21-.1.35-.4.4l-.63-.03-.39-.11-.05-.32c1.13-2.29,1.46-5.52-.47-7.43-.22-.05-.34-.16-.37-.32.51-.28,1.11-.3,1.67-.18h0Z"></path><path class="uuid-5e9443de-5461-43aa-bcfa-cd97818b139b" d="M75.08,35.82c.21-.2.52.02.38.28,1.37,1.18,1.75,3,.72,4.57-.11.17-.26.34-.27.53-.24.16-.61.05-.84.13l-.28.03c-1.46-1.15-1.92-3.83-.56-5.18.1-.16.26-.31.46-.46.12.09.28.04.39.1h0Z"></path><path class="uuid-77029e94-cccf-4860-ad9b-53be3c6d10b3" d="M38.23,26.59c.93,3.2-.49,6.6-3.54,8.07-.25.01-.54-.21-.77-.16v-.09c1.11-1.12,1.08-.71,1.96-2.13.06-.42.23-.82.51-1.21.08-.35.23-.6.43-.75l-.07-.29c.44-1.09.4-2.29.2-3.43l.14-.27c.41-.08.84-.03,1.15.26h0Z"></path><path class="uuid-6c5c8ea2-3263-49ba-a051-c83d7a482663" d="M37.08,26.33c.26,1.34.33,2.75-.26,3.99l-.32-.05c-1.02-1.35-2.17-2.59-3.46-3.71l-.23-.42c1.33-.74,3.01-.66,4.27.19h0Z"></path><path class="uuid-47c6c5a1-0a41-4750-aaa8-9011fd60827e" d="M74.69,35.72c-.16.17-.33.3-.53.39-1.35,1.77-1.25,3.75.45,5.26.07.15-.03.2-.19.21-.17-.04-.49.01-.66.04-.84-.87-1.49-1.89-1.5-3.22l-6.97-.24c-.26-.09-.18-.52.1-.49l6.89.22c.1-1,.58-1.81,1.37-2.37-.09-.04-.17-.08-.24-.14.42-.07.96.1,1.29.35h0Z"></path><path class="uuid-6c5c8ea2-3263-49ba-a051-c83d7a482663" d="M61.41,31.44c-.12.03-.19.14-.25.28l-.96,1.93c-.23.46-.54.88-1.08,1.09.24-1.18.35-2.29.23-3.45-.11-1.06-.68-1.88-1.25-2.71,1.63-.01,3.08,1.24,3.31,2.86h0Z"></path><path class="uuid-77029e94-cccf-4860-ad9b-53be3c6d10b3" d="M57.33,36.83c-.28.08-.56.09-.84.03-.02-.69.25-1.53.68-2.06.53-2.12.39-4.09-1.21-5.7.07-.21.3-.24.47-.33.38.05.7.27.93.61,1.55,2.27,1.15,5.18-.03,7.46Z"></path><path class="uuid-bbf6af18-0432-44ef-bb35-40adf62417b5" d="M32.81,26.14c.93.72,1.77,1.52,2.55,2.45.5.59.92,1.22,1.45,1.73-.1.73-.55,1.35-.94,1.96,0-.12-.02-.23-.08-.38-.86-1.92-1.94-3.68-3.28-5.3-.08-.12-.17-.19-.29-.2.17-.07.42-.18.58-.27h0Z"></path><path class="uuid-bbf6af18-0432-44ef-bb35-40adf62417b5" d="M55.11,23.52c.12.22.52,1.66.48,1.74-.11.13-.27.2-.49.21-.76,0-1.54.19-2.31.2l.65-2.06c.61.05,1.13-.04,1.67-.08Z"></path><path class="uuid-6c5c8ea2-3263-49ba-a051-c83d7a482663" d="M55.49,25.47h-.39c.07-.05.16-.08.33-.14l-.38-1.48c-.03-.14,0-.25.07-.33,1-.07,1.88-.54,2.71-1.1-.52,1.74-.95,1.98-2.32,3.05h0Z"></path><path class="uuid-ef43fd7a-6b56-457c-a1ac-e16bf19575ac" d="M74.23,36.18c-1.03,1.59-.74,4.1.84,5.15-.24.08-.34.33-.65.25,0-.02.08-.11.04-.14-.89-.78-1.52-1.87-1.43-3.11.07-.88.51-1.69,1.13-2.22.09-.04.11-.02.07.07h0Z"></path><path class="uuid-ebaafdbd-094a-4e42-972c-dc5bec2c801f" d="M48.01,25.02c-.02.21-.02.41,0,.62-1.09-.29-2.18-.59-3.26-1.1.07,0,.15,0,.24-.05.09-.21.17-.39.23-.58.87.48,1.9.7,2.8,1.12h0Z"></path><path class="uuid-ebaafdbd-094a-4e42-972c-dc5bec2c801f" d="M65.56,36.75c-.18.24-.08.65-.17.92-.06.16-.06.33-.1.49-.08.31-.08.6-.02.93-.14.03-.3-.01-.47-.11-.02.18-.13.22-.28.1.06-.86.14-1.78.77-2.39.02.12.19.05.27.07h0Z"></path><path class="uuid-db232425-e337-48f6-9cae-e592164bceb9" d="M5.94,31.93l-.03,1.66s-.09-.03-.09-.1v-5.58c.03-.08.06-.08.09,0l.02,4.03h0Z"></path><path class="uuid-f9b4b9eb-25b4-45ce-89db-607ac77cddc1" d="M5.97,25.76c-.08-.67-.08-1.34,0-2.07.08.67.08,1.34,0,2.07Z"></path><path class="uuid-9c0fac08-8d75-4479-ba39-5bfbe9d11e0c" d="M5.92,27.9h-.09c0-.44-.04-.87.05-1.31.09.47.04.89.05,1.31Z"></path><path class="uuid-7665e81a-7bf1-49ad-bbfd-2aaaff482972" d="M6.07,23.15c-.08-.39-.08-.79,0-1.23.08.39.08.79,0,1.23Z"></path><path class="uuid-1655ec09-99cc-4b41-883e-ce310a49f5cd" d="M89.68,52.98c-.06-.23-.07-.46,0-.75.09.2.09.42,0,.75Z"></path><path class="uuid-48669b5b-dfd1-4983-92eb-07a81a52e80d" d="M89.58,53.82c-.06-.2-.07-.4,0-.66.09.17.09.35,0,.66Z"></path><path class="uuid-1655ec09-99cc-4b41-883e-ce310a49f5cd" d="M89.31,55.96c-.06-.17-.07-.34,0-.56.1.14.09.29,0,.56Z"></path><path class="uuid-f54651a3-0b04-4cb7-87a6-2decda3ed95e" d="M89.4,55.31c-.06-.17-.07-.34,0-.56.1.14.09.29,0,.56Z"></path><path class="uuid-7a20dfa8-6a29-4900-bf69-2f481f79fbed" d="M89.49,54.57c-.06-.17-.07-.34,0-.56.1.14.09.29,0,.56Z"></path><path class="uuid-62c6b2d3-60cb-4f66-875f-14b81992e79e" d="M89.21,56.52c-.07-.13-.07-.28,0-.47.1.1.09.23,0,.47Z"></path><path class="uuid-8c933148-0d69-4b0c-83a5-cd739fd639ce" d="M89.12,57.08c-.07-.13-.07-.28,0-.47.1.1.09.23,0,.47Z"></path><path class="uuid-e1545073-5930-4416-89c9-8e1bf3f2cebd" d="M43.19,67.7l.21.03.29.81,2.48,4.18c1.05,1.63,1.8,3.36,2.23,5.19-.17.33-.51.47-1.03.44-1.43-.09-2.68,0-3.94.79l-.26-.09-1.72-2.99c-1.15-2-2.17-4.01-3.07-6.14-.7-1.64-.99-3.71.5-4.93l.17-.2c1.78-.06,3.54,1.02,4.26,2.67l-.11.24h0Z"></path><path class="uuid-e1545073-5930-4416-89c9-8e1bf3f2cebd" d="M61.44,49.36c.11.24,0,.5-.27.54-.05.14-.16.18-.33.12-.14-.01-.25.08-.29.21-.56,1.77.4,4.58,1.23,6.18.92,1.78,1.98.22,1.54-1.13l.17-.15c0-.36.29-.45.39-.11.61,2.41,1.22,5.18.75,7.66.01.07.03.17-.02.19-.28.18-2.19,1.18-2.36,1.13-.05-.02-.11-.03-.16-.03-.24-.91-.89-1.42-1.71-1.82-.59-.21-1.12-.49-1.6-.84-.21-.91-.38-1.82-.5-2.75l.16-.16-.2-.13c.03-1-.06-2.01-.26-3.03-.1-1.22-.2-3.13.19-4.28.05-.13.16-.23.27-.31.13-.47.56-.94.93-1.24.66-.52,1.42-.37,2.07-.07h0Z"></path><path class="uuid-0293abe4-eca5-4a70-aa14-ed06843535ca" d="M37.85,53.44c.11.03.22.08.29.17.14.17.61.97.7,1.18.05.1.04.23.02.33,1.06,1.33,2.43,2.31,4.15,2.91l-1.33.39c-.23,3.17.62,6.18,1.95,9,.18.28-.22.5-.43.27-.56-1.64-2.55-2.9-4.32-2.7-.63-2.24-1.18-4.27-1.13-6.66-.93-.63-1.58-1.44-1.96-2.46-.66-1.73-.14-3.61,1.31-4.78.15.88.42,1.62.76,2.34h0Z"></path><path class="uuid-d4ca3249-6337-4092-af48-e126e3a95383" d="M58.44,58.4l.42,2.58c.04.25.17.39.39.47,1.01.4,2.88,1.14,2.92,2.4.64-.11,2.11-1.13,2.47-1.17,2.53-.33,5.86.61,6.56,3.46l-13.75,2.93c-.96-1.2-.2-3.61.74-3.86l.03-.2,2.94-.78c-.11-1.91-2.34-2.02-3.79-1.43l-.27-.1c-.32-1.56-.38-3.15-.46-4.74l.09-.2c.44-.02.84.14,1.21.48.25-.02.43.04.52.18h0Z"></path><path class="uuid-d4ca3249-6337-4092-af48-e126e3a95383" d="M43.73,67.51l.29.23c1.61,2.4,3.04,4.93,4.3,7.53.27-.12.49-.37.66-.74.17-.21.36-.43.61-.21.1.21.2.42.22.66l-.06.25c-.68.4-.95,1-.85,1.77.05.37.28,1.64.69,1.02.14-.37.37-.58.67-.62-.01-.27.07-.43.26-.46l.03,1.21c.03.91,2.3,3.12,1.76,4.8h-10.72c.28-1.45.75-2.79,1.56-3.91.7-.3,1.38-.72,2.17-.86s2.27.13,2.89-.21c-.11-1.5-1.73-4.36-2.53-5.7l-2.19-3.69-.3-.89c.16-.07.33-.12.43-.27.04.02.08.04.11.08h0Z"></path><path class="uuid-c9d74144-6e91-4b20-b377-b827e467c984" d="M63.52,87.95c.04-.53.04-.62,0-.28h-.11l-1.13,3.25c-.47.04-.9.18-1.34.12-.4-.47-.17-2.7-.47-3.59l-.51,3.64-1.61.16,1-7.29,2.21-.19.48,3.91,1.39-4.01,2.37-.19-1,7.3c-.6.04-1.12.12-1.66.1l.38-2.94h0Z"></path><path class="uuid-0293abe4-eca5-4a70-aa14-ed06843535ca" d="M58.44,50.67c-.54,1.97-.42,4.16-.04,6.23.1.54-.03,1.04.04,1.52-1,.24-.78-.64-1.82-.46-.03-.6,0-1.22.02-1.87.02-.49.26-.89.33-1.45-2.2.99-4.69,1.42-6.74.07.26-.37.46-.64.65-.94,0-.39.14-.77.41-1.17.1-.4.29-.71.56-.93.07-.24.17-.47.28-.74l6.31-.26h0Z"></path><path class="uuid-0293abe4-eca5-4a70-aa14-ed06843535ca" d="M42.05,48.87l.23.38.26,1.38c.66,2.16,1.41,4.29,2.25,6.39l-.05.44c-1.07.19-2.32-.03-3.17-.84-.62-.59-1.21-1.28-1.67-1.96-.33-.12-.58-.39-.78-.83-.24-.27-.32-.52-.23-.77l-2.06-3.97,5.22-.23h0Z"></path><path class="uuid-6c5c8ea2-3263-49ba-a051-c83d7a482663" d="M51.19,51.68c-.14,0-.12.02.02.07l-.78,1.6-.19.02c-.63,1.01-1.21,2.06-2,3.01-.42.5-1.04.68-1.59.88-.06-.21-.11-.44-.1-.66.19-2.55.37-5.07.23-7.63l.1-.33c.7,0,4.59-.34,4.92.14.44.64-.81,2.34-.62,2.9h0Z"></path><path class="uuid-c9d74144-6e91-4b20-b377-b827e467c984" d="M47.45,89.67c.04,1.28-.73,2.19-1.92,2.42-.9.17-1.8.23-2.77.21l.97-7.21c1.4-.22,3.95-.7,4.07,1.28.05.82-.29,1.52-1.09,1.92.55.35.72.79.74,1.38h0Z"></path><path class="uuid-fcbac354-1e27-4b4c-a939-8ba6c980810d" d="M45.95,48.64c.05.09.1.19.14.29s.07.19.08.29c.05.69.07,1.39.09,2.08.04,1.62.1,4.11-.29,5.64-.05.21-.15.39-.28.56-.31.02-.65,0-.95-.04-.91-2.89-2.38-5.49-2.69-8.59l3.89-.23h0Z"></path><path class="uuid-c9d74144-6e91-4b20-b377-b827e467c984" d="M67.19,90.58c-.63.1-1.24.12-1.91.14l2.05-3.71-.9-3.52,1.78-.16.39,1.64.79-1.72,1.81-.11-1.85,3.66,1.1,3.57-1.9.11-.4-1.62-.94,1.71h0Z"></path><path class="uuid-77029e94-cccf-4860-ad9b-53be3c6d10b3" d="M53.62,41.38c-.2.28-.51.52-.75.77-.16.16-.21.2-.33,0-.33-.89-.75-1.74-1.26-2.53l-.02-.33-.21-.03c-.44-1.17-1.27-1.3-2.41-1.34-.04-.08-.1-.15-.16-.21-.07.27-.36.26-.48.01l-.38.16c-1.37-.09-2.2-.12-3.3.65-.98.94-2.05,1.78-3.21,2.5-.33.21-.61.24-.85.1l-.24.24c-1.11.15-2.22.2-3.34.17l-.29-.17-.66-1.12c1.52-.14,3.28.31,4.58-.2,1.13-.44,2.58-2.12,3.71-2.98.53-.41,1.09-.64,1.78-.65,1.5-.04,2.98.11,4.43.47.56.14.96.44,1.26.91.83,1.28,1.22,2.45,2.14,3.6h0Z"></path><path class="uuid-d4ca3249-6337-4092-af48-e126e3a95383" d="M23.32,44.43l.24.18.82,2.99c-.01.15-1.28,2.4-1.4,2.46-.19.1-1.1.01-1.1-.31l.55-1.63c-.02-.25-.35-.67-.56-.82l-2.06.13c-.17.47-.31.86-.41,1.31l1.64,2.11-1.59,1.04-2.41-1.17-.1-4.6,1.27-1.14.23.06c.97,2.06,3.48,1.57,3.87-.62l.21-.12c.16-.29.73-.2.81.12h0Z"></path><path class="uuid-fcbac354-1e27-4b4c-a939-8ba6c980810d" d="M25.24,35.24l.13.16-2.98,6.4-.1.09c-.68-.13-1.36-.14-2.04-.01-.33.15-.63.19-.89.1.21-1.24.68-2.43,1.21-3.62.44-1,1.35-3.23,2.47-3.5.77-.18,1.58,0,2.2.39h0Z"></path><path class="uuid-c9d74144-6e91-4b20-b377-b827e467c984" d="M34.51,91.86c-.07-1.49.35-3.01.5-4.56.56-.09,1.1-.12,1.67-.12l-.49,3.58c-.02.18.05.56.24.58.69.08.86-3.6.99-4.23.57-.07,1.12-.12,1.75-.11l-.84,5.63c-.47.05-.87.07-1.29.07-.07-.18-.04-.31-.14-.47-.38.51-.82.74-1.4.67s-.96-.48-.99-1.05h0Z"></path><path class="uuid-6c5c8ea2-3263-49ba-a051-c83d7a482663" d="M26.94,36.39c1.01,1.77-.59,5.01-1.54,6.67-.22.39-.44.77-.8.96-.24-.08-.43-.29-.55-.62-.34-.53-.77-1-1.27-1.4v-.22l2.72-6.27.22-.03.19-.1c.3.12,1.3.68,1.04,1.01h0Z"></path><path class="uuid-c9d74144-6e91-4b20-b377-b827e467c984" d="M34.01,88.69l-.22,1.47-1.45.17-.44,2.75c-.52.09-1.04.08-1.68.09l1-7.21,3.29-.26c-.03.42-.07.81-.12,1.23-.07.58-1.08.21-1.57.4-.17.47-.21.96-.23,1.44l1.4-.08h0Z"></path><path class="uuid-6c5c8ea2-3263-49ba-a051-c83d7a482663" d="M52.87,42.15c-.77.78-.58,2.23-2.15,3.08l-.12.08c-1.1-.17-2.23-.23-3.36-.16l-.14-.19c-.07-.03-.16-.08-.16-.13.02-.24.27-1.11.54-1.1.33-.5.73-.94,1.21-1.35l1.53-1.85c.28-.52.62-.94,1.04-1.24.64.8,1.04,1.79,1.44,2.78.03.09.1.11.16.09h0Z"></path><path class="uuid-e1545073-5930-4416-89c9-8e1bf3f2cebd" d="M57.17,34.8c-.17.7-.4,1.39-.68,2.06-.16.39-.41.76-.52,1.23-.24,1-.75,1.87-1.41,2.57-1.84-1.72-2.16-4.85-5.23-4.74-.1-.25.01-.44,0-.64,2.57,1.04,5.4.79,7.84-.49h0Z"></path><path class="uuid-6c5c8ea2-3263-49ba-a051-c83d7a482663" d="M71.91,73.59c.31-.03.68.14.94.29.29-.1.37-.03.45.26.08.68.1,1.36.07,2.05-.23,1.09-.73,1.92-1.35,2.78-.05.05-.13.14-.18.11-.25-.12-2.01-1.07-2.06-1.17-.05-.34-.12-.66-.2-.98-.17-.44-.26-.88-.26-1.31-.05-.05-.12-.14-.09-.18.36-.54.96-1.28,1.39-1.76.16-.3.34-.43.54-.39.22-.06.64.09.76.28h0Z"></path><path class="uuid-77029e94-cccf-4860-ad9b-53be3c6d10b3" d="M38.68,45.42l.49-.12c3.83-.09,7.65-.09,11.46.02l.07.12c-.09.33-.06.85-.31,1.11-.4.1-.89.07-1.27.07l-.06.19c-3.13,0-6.27,0-9.4,0l-.11-.19-1.38-.06.04-1.14c0-.28.42-.26.47,0h0Z"></path><path class="uuid-0293abe4-eca5-4a70-aa14-ed06843535ca" d="M40.25,41.12l.19.06c.09,1.21.32,2.37.71,3.5l-.07.29c.11.28-.1.4-.64.36-.61-.08-1.2-.04-1.77.1h-.47c-.43-.61-1.01-1.19-1.22-1.94l-.61-2.12c1.32-.07,2.55.08,3.88-.24h0Z"></path><path class="uuid-c9d74144-6e91-4b20-b377-b827e467c984" d="M42.28,92.18c-.51.31-1.08.42-1.66.37-1.1-.09-1.08-1.4-.95-2.22l.3-1.91c-.14-.09-.26-.05-.46-.13.06-1.47.54-.82.87-1.46.16-.31.19-.78.44-1.01.27-.2.75-.06,1.11-.12l-.03,1.07c.31.05.59-.07.9.02l-.23,1.34-.93.12-.35,2.72c.34.11.59-.02.91-.1.06.41.07.81.07,1.3h0Z"></path><path class="uuid-c9d74144-6e91-4b20-b377-b827e467c984" d="M57.78,89.77c.15.49.1.89.09,1.34-.49.27-1.05.4-1.62.35-1.03-.09-1.08-1.31-.96-2.11l.29-2.03c-.16-.07-.27-.06-.45-.08-.1-1.24.45-.93.82-1.43.22-.29.18-.79.45-1.02s.77-.09,1.15-.19l-.03,1.08c.3.03.56-.07.83,0-.03.5-.05.93-.13,1.37l-.99.08-.3,2.67c.06.26.55.09.84-.03h0Z"></path><path class="uuid-f07a3d75-944b-42f7-93c5-84542fb3201b" d="M64.07,76.1c.07-.02.1,0,.07.07.07,0,.19,0,.21.06.22.66.51,1.77.62,2.45.13.26.11.46-.05.58.1.12.03.13-.11.11l-.05.21c-.71.21-1.4.41-2.08.61-.03.02-.07.03-.09.02-.32-.19-1.86-1.91-1.97-2.21-.01-.03,0-.08,0-.12-.11-.02-.21-.11-.3-.28,0-.03,0-.07,0-.1l-.02-.33,1.22-2.07.23-.02c.04-.06.1-.15.15-.14.29.06,1.81.75,2.12.93l.05.23h0Z"></path><path class="uuid-6c5c8ea2-3263-49ba-a051-c83d7a482663" d="M49.58,74.33c-.7.17-.68,1.26-1.38,1.12-1.28-2.62-2.68-5.11-4.29-7.53-.1-.15-.17-.26-.18-.4,2.93.45,4.69,4.39,5.86,6.81h0Z"></path><polygon class="uuid-0293abe4-eca5-4a70-aa14-ed06843535ca" points="49.12 46.62 48.99 47.73 39.79 48.19 39.55 46.63 49.12 46.62"></polygon><path class="uuid-e1545073-5930-4416-89c9-8e1bf3f2cebd" d="M22.51,44.31c-.14.98-.74,1.96-1.78,2.19-1.13.26-2.14-.51-2.52-1.52.13-.58.19-1.17.87-1.36.23-.41,1.13-.43,1.6-.42.55.02,1.96.24,2,.92,0,.07-.1.14-.18.18Z"></path><path class="uuid-f07a3d75-944b-42f7-93c5-84542fb3201b" d="M72.02,78.99c-.97,1.36-2.46,2.26-4.13,2.54-.45-.19-1.01-.82-1.1-1.31-.14-.11-.09-.16.08-.1v-.3c.82-.77,1.69-1.46,2.62-2.09-.02-.18-.07-.35-.17-.53l.16-.15.09-.09c.14.24.23.56.34.86l2.11,1.17h0Z"></path><path class="uuid-6c5c8ea2-3263-49ba-a051-c83d7a482663" d="M71.42,69.87c.67.7,1.1,1.33,1.5,2.22.15.54.26,1.1.33,1.65-.1.24-.18.3-.32.05-.29.03-.7-.15-.94-.3-.28-.05-.57-.15-.85-.28-.07.03-.17.08-.2.04-.4-.45-1.37-1.82-1.64-2.34l.07-.22.19-1.03c-.08-.02-.08-.05,0-.09,0-.09.03-.22.1-.23.54-.1,1.29.26,1.75.52h0Z"></path><path class="uuid-77029e94-cccf-4860-ad9b-53be3c6d10b3" d="M58.17,65.21c-.71-1.36-.77-.99-1.09-2.52.73-.26,1.49-.45,2.32-.38,1.1.1,1.96.93,1.98,2.05l-3.21.86h0Z"></path><path class="uuid-d4ca3249-6337-4092-af48-e126e3a95383" d="M25.34,35.23c.24-.17.43-.03.37.24l-2.8,6.45c.82.54,1.29,1.29,1.68,2.09l-.37.66c-.14.21-.2.16-.19-.08l-.22-.14c-.8-2.13-2.61-2.54-4.48-1.47l-.23-.09c-.03-.34.2-.61.25-.93.91-.39,1.87-.51,2.88-.23l3-6.5h.1Z"></path><path class="uuid-2f2b441b-f441-49b7-ab5e-43ad3426206b" d="M58.71,79.51c-2,.44-2.03-4.15-1.85-5.32.11-.69,1.12-3.99,2.03-3.28l-.82,2.38c-.48,1.4-.47,2.91.02,4.3.22.63.53,1.2.62,1.91h0Z"></path><path class="uuid-f07a3d75-944b-42f7-93c5-84542fb3201b" d="M63.68,68.55c.28-.09.44-.07.48.07.1.08.17.13.2.24.02.08-.03,1.44-.06,1.64l-.14.19c.12.1.09.14-.09.12l.02.21-2.63,1.84c0,.09-.05.16-.11.19-.17.03-.25-.08-.26-.32l-.75-.48v-.23c.63-1.55,1.8-2.76,3.34-3.46h0Z"></path><path class="uuid-d4ca3249-6337-4092-af48-e126e3a95383" d="M46.88,48.64c.19,2.87.19,5.76-.24,8.61-.31.12-.61.23-.95.24.5-2.93.45-5.9.25-8.86h.94Z"></path><path class="uuid-6c5c8ea2-3263-49ba-a051-c83d7a482663" d="M24.03,44.6c.06.02.13.05.19.08.09.04.17.14.21.26l.94,2.9-1.75,3.24c-.48-.16-1.03-.16-1.44-.43-.19-.21-.36-.68-.28-.91.31.07.63.17,1.01.16l1.31-2.33-.89-3.15c.14-.3.59-.09.71.17h0Z"></path><path class="uuid-6c5c8ea2-3263-49ba-a051-c83d7a482663" d="M64.82,79.37c.64.1,1.42.49,1.98.84.4.4.79.84,1.1,1.31-1.71.28-3.45.08-4.97-.94-.1-.07-.24-.14-.23-.28-.08-.03-.09-.07-.02-.12.02-.11.1-.23.25-.27l1.88-.55h0Z"></path><path class="uuid-6c5c8ea2-3263-49ba-a051-c83d7a482663" d="M61.35,73.03c.1.04.07.18.02.28l.07.02.21,1.56.11.1c.09.02.08.05,0,.09l-1.43,2.42c-.9-1.72-.7-3.76.01-5.49l.86.55c.14.09.09.35.16.47Z"></path><path class="uuid-c9d74144-6e91-4b20-b377-b827e467c984" d="M64.52,39.07c.15,0,.04-.18.13-.24.18-.13.53.06.62.25.1.54.34,1.1.68,1.56-2.71-1.31-5.35-2.88-8.22-3.7.37-.07.72-.16,1.03-.37.74.03,1.45.27,2.11.68l2,1.25c.52.32,1.07.55,1.65.57Z"></path><path class="uuid-77029e94-cccf-4860-ad9b-53be3c6d10b3" d="M24.03,44.6l-.71-.17c-.27-.06-.53-.12-.81-.12.04-.31-.23-.53-.53-.65-.94-.39-1.95-.29-2.9-.02-.05-.24.05-.5.03-.73,1.24-.67,2.85-1.13,3.99.1.44.47.77,1.01.93,1.61h0Z"></path><path class="uuid-f07a3d75-944b-42f7-93c5-84542fb3201b" d="M47.1,44.96l2.13-.02c.54,0,1.06.05,1.49.28-.01.07,0,.15-.02.22l-12.02-.03c.61-.64,1.92.17,2.41-.46l.09-.19,4.76.07.29-.07.33.05c.27-.07.45-.03.54.13h0Z"></path><path class="uuid-77029e94-cccf-4860-ad9b-53be3c6d10b3" d="M50.52,76.95l-.13.81c-.55-.62-.36.72-1.25.65-.59-1.36-.8-2.64.66-3.43.93-.15.66,1.54.72,1.96h0Z"></path><path class="uuid-340c8c1c-c35d-4f6e-8c9e-2d6daee49d36" d="M55.96,76.66c-.4.26-.84,0-.98-.44-.32-1.02-.22-2.19.25-3.15.07-.16.25-.21.33-.26s.38.02.37.14c-.19,1.23-.37,2.41.03,3.71h0Z"></path><path class="uuid-6c5c8ea2-3263-49ba-a051-c83d7a482663" d="M63.88,55.02c-.14-.04-.31-.03-.39.11l-.21-.18c-.2-1.73-.54-3.67-2.03-4.78l-.08-.28c.07-.19.12-.39.27-.54.43.2.82.37,1.13.86.89,1.38,1.11,3.22,1.31,4.81h0Z"></path><path class="uuid-eddeadd4-9d9b-476b-afcf-41c97f3758ee" d="M53.99,88.79c.25-.09.34-.02.28.19.07.15.07.34,0,.56.05.06.07.16.07.28-.08.51-.3.88-.63,1.23-.35.1-.74-.12-.84-.47-.16-.02-.19-.23-.17-.38-.21-.07-.23-.1-.07-.29-.25-.28-.19-.58.18-.92.19-.31.4-.44.62-.38.17-.15.62-.1.56.18h0Z"></path><path class="uuid-7ea72349-96a2-49d8-86f9-5d4e1cb6c5a7" d="M49.33,89.44l.14-.16c.34.16.68.29,1.03.37.03.46.14.92.29,1.38l-.14.17c.1.21-.66.45-.84.48l-.19-.1c-.04-.06-.13-.07-.19-.11-.24.03-.25-.05-.12-.25-.15,0-.31-.21-.35-.35-.19.05-.29-.05-.28-.33,0-.05,0-.14-.03-.17-.11-.31.14-.96.49-.93.03-.17.1-.14.2,0h0Z"></path><path class="uuid-48b062aa-3332-4ac1-acc9-c89429349ab6" d="M71.42,69.87c-.51,0-1.47-.52-1.85-.29-.59-.25-1.19-.52-1.79-.81l-.26-.31c-.12-.02-.22-.05-.28-.12,0-.2.17-.32.53-.36,1.43.23,2.66.84,3.65,1.88h0Z"></path><path class="uuid-ebaafdbd-094a-4e42-972c-dc5bec2c801f" d="M38.89,53.07c.27.52.68,1.1,1.01,1.59-.26.3-.64.56-1.05.47-.42-.52-.73-1.09-1.01-1.69.41-.51.36-.33,1.04-.37Z"></path><path class="uuid-ebaafdbd-094a-4e42-972c-dc5bec2c801f" d="M25.97,34.39c.61.37,1.03,1,1.5,1.53-.05.26-.3.41-.54.48-.24-.42-.85-.66-1.23-.91-.12-.08-.24-.17-.37-.24.09-.37.23-.81.63-.85h0Z"></path><path class="uuid-47392638-6c85-469a-9375-cb54ae0f214f" d="M52.87,90.58c.29.15.56.31.84.47-.49.53-1.12,1.17-1.88,1.01-.29.07-.64-.33-.37-.55l.04-.23.96-.77.23.07c.02-.23.09-.2.19,0h0Z"></path><path class="uuid-ebaafdbd-094a-4e42-972c-dc5bec2c801f" d="M51.19,51.68h.66c-.23.72-.57,1.42-.97,2.08-.24-.08-.49-.19-.64-.39-.12.19.96-2.33.95-1.69h0Z"></path><path class="uuid-688e36e2-a819-45ba-924a-3f5a92285523" d="M53.14,87.03c.65.13.98.75,1.03,1.39.22.15.07.56-.18.37-.16-.1-.44-.01-.56-.18-.06.03-.16.08-.2.04-.19-.19-.7-.85-.53-1.07-.16-.12-.07-.41,0-.58.1-.25.34-.2.44.03h0Z"></path><path class="uuid-8628f877-332e-4a6b-9b95-90527b899949" d="M67.77,67.99c-.08.24-.33.24-.53.36-.09.1-.33.09-.47.02l.02.09c-.53.05-1.07.08-1.6.1-.09.09-.34.07-.47,0-.06.12-.21.14-.47.07-.03.08-.07.07-.09,0l-.48-.07c1.33-.59,2.64-.79,4.09-.56h0Z"></path><path class="uuid-7ea72349-96a2-49d8-86f9-5d4e1cb6c5a7" d="M50.34,86.58c.04-.07.06-.07.07.02.11.23.13.7-.14.79.12.09.08.15-.11.19.11.25-.59.64-.82.74l-.21-.09c-.02.19-.1.14-.19,0-.22.21-.38.1-.3-.18.35-.66.91-1.52,1.7-1.47h0Z"></path><path class="uuid-972307d2-6a1a-4f67-9327-315a1e60cce3" d="M50.65,91.2c.02-.09.05-.09.08,0,.14.08.26.18.37.3.05-.25.3-.26.36,0,.04.23.27.35.37.55-.07.4-.96.05-1.12.17-.16.09-.22.07-.18-.06-.22-.11-.46-.29-.71-.24-.07.03-.11.01-.11-.07-.03-.08-.04-.18-.09-.26.29-.24.69-.24,1.03-.39h0Z"></path><path class="uuid-682b1c3b-63c3-4d69-8d67-5044889487ac" d="M48.95,88.23c.13.07.19.23.19.47.26-.08.31.14.09.28l-.04.16c.05.19.04.29-.06.3l-.49.93c-.47-.68-.36-1.64,0-2.34.09.08.18.16.3.18h0Z"></path><path class="uuid-f89293e4-4ee6-4216-8e14-b8720078f8db" d="M73.37,76.2c-.21-.33.04-2.26-.52-2.32-.12-.09-.09-.11.09-.09.38.3-.11-1.53-.02-1.71.59,1.3.75,2.67.45,4.11h0Z"></path><path class="uuid-343130f4-bb45-4032-a186-5fa14914b258" d="M62.68,80.19s0,.08.02.12c-.7-.09-1.86-1.66-2.17-2.33-.11-.14-.06-.19.1-.1.46.56,1.85,1.93,2.05,2.31h0Z"></path><path class="uuid-47af90d3-979c-4f44-89b5-d070350d1e25" d="M49.82,91.92c-1.06,1.02-2.41,1.79-3.86,2.1-.2.05-.26.02-.19-.09,1.47-.36,2.78-1.11,3.94-2.07.04.01.08.04.11.07h0Z"></path><path class="uuid-47af90d3-979c-4f44-89b5-d070350d1e25" d="M48.58,91.13c-.91,1.19-2.27,2.03-3.73,2.33-.22.06-.28.03-.19-.09,1.48-.36,2.84-1.17,3.83-2.33.08-.04.11,0,.09.09Z"></path><path class="uuid-47af90d3-979c-4f44-89b5-d070350d1e25" d="M49.98,93.28c.07-.04.09-.02.08.06-1.19.77-2.59,1.31-4,1.33-.17.06-.43.09-.47-.09,1.56-.04,3-.59,4.39-1.29h0Z"></path><path class="uuid-fe286db2-12ea-442c-87bb-a613d00c359a" d="M50.71,92.22c-.62.57-1.33,1.07-2.13,1.34-.16.09-.21.03-.1-.12.73-.34,1.47-.73,2.05-1.29.05.03.13.02.18.06h0Z"></path><path class="uuid-f106621a-af81-465e-b683-c66def2cb04d" d="M53.14,87.03c-.14-.03-.3-.05-.44-.03-.02.09-.05.08-.09,0-.2.09-.77-.2-.77-.43l-.1-.1c-.04-.08,0-.11.09-.09.55.06,1.06.21,1.5.63-.09.05-.15.02-.2.03h0Z"></path><path class="uuid-ad037266-f10b-4c77-806f-3b251fb89ad7" d="M49.43,91.48c-.6.4-1.12.93-1.78,1.22-.1.03-.13,0-.1-.1.6-.37,1.21-.77,1.68-1.29-.14-.11-.09-.17.08-.09.05.08.1.16.12.25Z"></path><path class="uuid-7fe3f8b0-cb1b-482e-9774-dfd939c769f6" d="M51.84,86.37s-.07.06-.09.09c-.21.05-.53.08-.75,0-.11.1-.31.16-.47.12-.02.09-.06.1-.12.02-.02,0-.05-.02-.07-.02.11-.59,1.71-.19,1.5-.21h0Z"></path><path class="uuid-92bb5adf-b4a4-429e-8202-55b357141d27" d="M45.59,94.57c.13.07.3.1.47.09.22.15-1.82.14-1.87-.06.47-.06.94-.03,1.41-.03h0Z"></path><path class="uuid-f8e2c47b-fc3a-4e1e-a968-190db27c1d47" d="M50.72,92.91l-.66.43-.08-.06c.23-.12.39-.37.65-.46.1-.04.13,0,.09.09h0Z"></path><path class="uuid-8a5fcdbc-eba5-4327-961f-1ff807425030" d="M47.65,92.71c-.3.13-.54.45-.96.45.28-.24.58-.38.86-.55.03.04.06.07.1.1h0Z"></path><path class="uuid-8c933148-0d69-4b0c-83a5-cd739fd639ce" d="M45.78,93.92c.03.07.11.1.19.09-.27.06-.56.32-.91.09.28-.13.51-.13.73-.19h0Z"></path><path class="uuid-d0262527-9bb6-4731-ad1d-764cc553a894" d="M44.66,93.36c.03.07.11.1.19.09-.24.05-.49.35-.82.09.23-.12.44-.14.63-.18h0Z"></path><path class="uuid-32e1bbc2-c1bd-48bc-93f9-50f695b7fb4a" d="M48.58,93.56c-.21.07-.42.37-.73.19.23-.19.44-.22.63-.31.03.04.07.08.1.12h0Z"></path><path class="uuid-6eb71991-b512-4e2e-aacb-1cb130fc4003" d="M54.34,89.82c-.07-.01-.12-.22-.07-.28.03-.26.06-.51.09-.75.26.3.03.7-.02,1.03h0Z"></path><path class="uuid-97658330-c9d5-4f2e-99b6-50c9e7a6308f" d="M48.96,90.88c.15.12.12.16-.06.06-.06-.08-.14-.08-.17-.01-.04.08-.1.13-.14.19-.03-.03-.06-.07-.09-.09.11-.13.21-.3.19-.47.14.05.23.19.28.33Z"></path><path class="uuid-9fb63293-4902-4c1a-b4ca-f8c17513a500" d="M54.36,88.7c-.03.1-.06.19-.09.28-.12-.02-.19-.13-.28-.19.12.04.19-.04.19-.14,0-.09,0-.16-.01-.23.06,0,.14.02.17.07.04.07.03.14.02.21Z"></path><path class="uuid-ae37a2f8-43b5-4f42-a5d8-2fc57f04cb92" d="M50.72,92.91s-.05-.07-.09-.09c.21-.07.3-.42.57-.44-.1.28-.3.42-.47.53h0Z"></path><path class="uuid-d1947cdc-ac0b-4211-8b14-887635c90e69" d="M49.31,91.23l-.08.09c-.15-.08-.25-.23-.34-.37.05.02.09,0,.06-.06.14.09.26.21.35.35h0Z"></path><path class="uuid-6bb27c7e-cc70-4b58-b8ab-7b0368797722" d="M43.03,93.73c-.21.22-.43.05-.62-.06.22-.03.38-.11.62.06Z"></path><path class="uuid-84238351-801b-4161-b459-38f025ed41a0" d="M44.47,94.29c-.08-.03-.08-.06,0-.09.06-.07.15-.1.23-.1.11,0,.19.06.24.18-.2.02-.33.01-.47.01h0Z"></path><path class="uuid-f9b4b9eb-25b4-45ce-89db-607ac77cddc1" d="M47.83,93.86c-.19.1-.35.17-.57.14.13-.16.38-.34.57-.14Z"></path><path class="uuid-af9b091b-7d56-417c-b08c-660b8ee05b67" d="M43.91,93.72c-.22.02-.35.03-.57-.01.08-.09.19-.1.26-.14.13-.07.24,0,.31.16h0Z"></path><path class="uuid-64d8c638-9e26-45f9-ae7a-9e6d3ba26878" d="M54.36,88.79c.02.22.02.59-.09.75v-.56c0-.1-.03-.24.09-.28v.09Z"></path><path class="uuid-5509ab28-2aae-44de-abea-1404800a8f4d" d="M47.12,94.08c-.21.04-.34.05-.51-.01-.94,0,2.5-.35.51.01Z"></path><path class="uuid-702ee123-0c28-4f98-ad6c-17b66e953948" d="M43.94,94.61c-.21.1-.4-.06-.6-.09.2-.05.42-.16.6.09Z"></path><path class="uuid-68423bba-b73e-49e1-b14d-2016693fe5bd" d="M63.52,87.95c0-.1,0-.23-.11-.28.09-.09.08-.17.14-.29.18.19,0,.4-.02.57h0Z"></path><path class="uuid-15cba893-71f2-4fa1-a90b-d0c9df80ba45" d="M60.63,77.88s-.07.06-.1.1c-.05-.12-.23-.21-.21-.38.15.04.21.17.3.28h0Z"></path><path class="uuid-c8f0a3c2-2c4d-45aa-9413-6994eb0eab3f" d="M43.44,94.2c.08.03.08.06,0,.09-.19-.01-.38.05-.57-.05.22-.09.4-.04.57-.04Z"></path><path class="uuid-91fba54f-126e-4d2e-9fe6-78b2ea5de278" d="M44.47,94.2v.09h-.56c-.08-.03-.08-.06,0-.09h.56Z"></path><path class="uuid-d0262527-9bb6-4731-ad1d-764cc553a894" d="M43.91,94.2v.09c-.16,0-.31.01-.47,0v-.09h.47Z"></path><path class="uuid-6c5c8ea2-3263-49ba-a051-c83d7a482663" d="M50.38,10.48c1.66,1.49,3.6,3.62,3.3,6.1l-3.26-.73c-1.18-2.45-3.51-4.06-6.13-4.71,1.87-.86,4.06-1.03,6.09-.66h0Z"></path><path class="uuid-6c5c8ea2-3263-49ba-a051-c83d7a482663" d="M58.19,17.25l-3.6-.47c-.04-1.2-.38-2.26-.8-3.33-.47-1.19-1.28-2.05-2.32-2.71l.52.05c3.1.34,5.45,3.4,6.2,6.46h0Z"></path><path class="uuid-6c5c8ea2-3263-49ba-a051-c83d7a482663" d="M80.86,36.38c-.72-.54-1.58-.89-2.4-1.37l-2.15,1.42-.85-.32c-.12-.1-.25-.21-.38-.28l1.57-1.49,2.93-.59,2.08,1.77c-.47.77-.35.84-.8.87h0Z"></path><path class="uuid-16165628-08df-4e05-bb71-1e43b19550c7" d="M81.98,39.19l-2.14,2.44-3.45-.84c.19-.53.41-1.02.69-1.47l2.54.89,1.89-2.04c.08-.03.13-.12.24-.14.16.39.2.79.23,1.17h0Z"></path><path class="uuid-77029e94-cccf-4860-ad9b-53be3c6d10b3" d="M52.73,20.87l-4.95-.81c.21-.77.38-1.5.44-2.35l4.76.75c0,.82-.1,1.53-.24,2.41Z"></path><path class="uuid-77029e94-cccf-4860-ad9b-53be3c6d10b3" d="M57.17,21.36c-.56.05-1.03-.1-1.6-.14l.13-2.33,1.62.09c.05.78-.02,1.5-.14,2.38h0Z"></path><path class="uuid-6c5c8ea2-3263-49ba-a051-c83d7a482663" d="M43.85,16.02c.09.2.12.45-.14.49l-.11.4c-.06.06-1-.07-.98-.31.24-1.16-.25-2.3-.75-3.36,1.05-.21,2.12,2.06,1.99,2.78h0Z"></path><path class="uuid-0293abe4-eca5-4a70-aa14-ed06843535ca" d="M44.3,18.01c0,.12-.09.21-.23.26l-.79.28c-.09-.29-.06-.62.09-.98.04-.43.14-.71.34-1.05.02-.17.1-.35.14-.49.25,0,.42,1.79.45,1.99Z"></path><path class="uuid-77029e94-cccf-4860-ad9b-53be3c6d10b3" d="M41.15,14.54c1.42.16.63,4.6-.73,4.65-.21,0-.51-.13-.56-.41-.23-1.26-.12-2.64.47-3.77.17-.33.51-.51.82-.48h0Z"></path><path class="uuid-16165628-08df-4e05-bb71-1e43b19550c7" d="M43.28,18.55c-.23.58-.66,1.07-.95,1.6.02-.47-.25-.98-.15-1.49l.44-2.06c.31.01.6.1.94.17.09-.08.1-.19.16-.26-.07.68-.17,1.39-.43,2.03h0Z"></path><path class="uuid-13927964-4935-44ea-ad26-3d83c3c44f21" d="M74.69,35.72c0,.26-.31.31-.46.46-.02-.03-.04-.05-.07-.07.16-.14.27-.39.53-.39h0Z"></path><path class="uuid-77029e94-cccf-4860-ad9b-53be3c6d10b3" d="M43.42,72c-.51.7-1.71.72-2.38-.12-.9-1.12-1.58-2.38-1.99-3.77-.19-.65-.35-1.68.28-2.07.67-.42,1.53.26,2,.81,1,1.16,1.82,2.48,2.3,3.94.14.42.03.87-.21,1.2h0Z"></path><path class="uuid-77029e94-cccf-4860-ad9b-53be3c6d10b3" d="M61.17,49.89c1.78,1.13,2.11,3.39,2.32,5.23.11.96.23,2-.61,2.21-.41.1-.79-.09-1.03-.47-1.05-1.63-1.92-4.58-1.53-6.51.04-.21.16-.42.3-.48.17-.08.38-.04.55.02h0Z"></path><path class="uuid-77029e94-cccf-4860-ad9b-53be3c6d10b3" d="M69.38,65.45l-10,2.05c-.15-.56.14-1.14.66-1.49,1.77-1.17,3.84-1.81,5.98-1.96,1.21-.08,2.32.24,3.27.96.11.09.19.27.09.44h0Z"></path><path class="uuid-77029e94-cccf-4860-ad9b-53be3c6d10b3" d="M50.72,82.05h-7.52c.19-.83.72-1.33,1.36-1.75,1.43-.79,3.17-.87,4.66-.19.76.41,1.36,1,1.5,1.94Z"></path><path class="uuid-a71125f0-b48c-47ee-87b7-70bcb7740708" d="M44.73,90.77c-.04-.51.08-1.04.21-1.52.07-.25.47-.1.6.07.26.57,0,1.37-.82,1.45h0Z"></path><path class="uuid-8f3c2097-0563-44de-9c0a-0c074990131a" d="M45.71,86.4c.34.09.3.81.04,1.09-.15.16-.38.31-.65.21.06-.44.1-.81.18-1.22.03-.16.3-.11.42-.08h0Z"></path><path class="uuid-bbf6af18-0432-44ef-bb35-40adf62417b5" d="M48,37.72l.16.13c-.58,2.29-1.15,4.58-1.72,6.87l-.21.06c-.02.08-.14.25-.26.25l-4.87-.06c-.26-.51-.46-1.06-.55-1.68l-.29-2.16c.76-.18,1.46-.58,2.07-1.11l1.74-1.52c.47-.41,1-.72,1.64-.78.79-.07,1.55-.06,2.3,0h0Z"></path><path class="uuid-bbf6af18-0432-44ef-bb35-40adf62417b5" d="M51.27,39.28c-1.02,1.66-2.24,3.25-3.78,4.44l-.16-.14c.53-1.96.91-3.92,1.15-5.88l1.37.16c.67.08,1.17.82,1.41,1.42Z"></path><path class="uuid-0293abe4-eca5-4a70-aa14-ed06843535ca" d="M48.48,37.7c.62-.37-1,6.02-1,6.02l-.39,1.23c-.21.02-.92.19-.87-.18l1.77-7.06c.15.02.33-.03.48-.01h0Z"></path><path class="uuid-16165628-08df-4e05-bb71-1e43b19550c7" d="M20.06,50.79c-.19.18-.44.33-.72.43l-1.77-1.22.14-3.89c.44.26.84.54,1.24.84l-.2,2.24,1.3,1.59h0Z"></path><path class="uuid-56cc795d-f728-4b36-ac3e-3244a453ce5b" d="M69.3,70.71c.03-.08.06-.09.09,0l1.77,2.52c.08.03.08.06,0,.09l-1.84,2.33c.02.18-.05.19-.13.02-.03.06-.09.16-.15.14-.48-.1-2.11-.78-2.59-1.03l-.06-.23c-.15.07-.16.03-.02-.11-.09-.05-.18-.12-.22-.21-.08-.19-.1-2.07-.09-2.43l.16-.26h.09c.06-.07.12-.14.19-.19s.14-.1.21-.13c.78-.28,1.79-.58,2.59-.51h0Z"></path><path class="uuid-c61a4218-a548-4b0f-83d1-015c4e980abc" d="M69.58,76.95s-.06.07-.09.09c-.24.02-.51-1.15-.48-1.22s.1-.12.18-.16l.13-.02c.08.44.29.86.26,1.31h0Z"></path><path class="uuid-cc5ee8b7-940f-49d9-b520-56efd3874ec9" d="M72.94,73.8l-.09.09c-.34-.02-.63-.18-.94-.29-.04-.08,0-.11.09-.09.34,0,.62.2.94.3h0Z"></path><path class="uuid-58f8c4bd-a1f5-4263-a907-e22fa8fc2239" d="M72,73.5s-.07.06-.09.09l-.76-.28v-.09c.31-.03.6.12.85.28Z"></path><path class="uuid-6c5c8ea2-3263-49ba-a051-c83d7a482663" d="M69.18,75.66c0,.48.26.9.3,1.38.02.21.31.55.16.8-.94.78-2.08,1.38-2.77,2.27-.66-.18-1.36-.5-1.94-.85l-.78-3.08c.63-.59,1.47-1.19,2.24-1.63l2.8,1.11h0Z"></path><path class="uuid-6c5c8ea2-3263-49ba-a051-c83d7a482663" d="M66.22,71.54c.15.96-.02,1.96.15,2.9-.72.59-1.5,1.15-2.29,1.66l-2.32-1.02s0-.06,0-.09l-.11-.1c-.08-.59-.14-1.18-.19-1.77-.07-.05-.07-.14,0-.28-.43-.19,2.63-2.07,2.61-2.05l.12-.04,2.03.78h0Z"></path><path class="uuid-b4956ecd-168c-4eca-b1af-ba356b845faf" d="M66.39,74.55l-2.24,1.63s-.06-.04-.07-.07c.73-.59,1.5-1.14,2.29-1.66l.02.11h0Z"></path><path class="uuid-b4956ecd-168c-4eca-b1af-ba356b845faf" d="M66.87,80.11l-.08.1-1.98-.84s.07-.12.11-.11c.67.21,1.29.57,1.94.85Z"></path><path class="uuid-6c5c8ea2-3263-49ba-a051-c83d7a482663" d="M67.52,68.47c.66.26,1.3.59,1.98.9.08.03.04.17.07.21.02.02-.01.07,0,.09,0,.39-.1.73-.28,1.03-1,.27-2.01.51-2.99.84-.75-.26-1.46-.54-2.15-.86-.16-.41.07-1.55,0-2.06h.09c.26.05.51.05.75.03.12-.09.4-.07.56,0l.04-.1,1.45-.09c.1-.11.32-.04.47,0h0Z"></path><path class="uuid-a194a2dd-cbeb-4377-afae-df0cdfe54470" d="M69.39,70.7s-.06,0-.09,0c.12-.33.07-.73.28-1.03.15.3-.02.74-.19,1.03Z"></path><path class="uuid-5efa113d-daac-426e-bc52-32ef85674fb8" d="M66.31,71.54s-.07,0-.09,0c-.75-.12-1.41-.56-2.15-.74l.09-.12c.27.04,2.01.67,2.15.86h0Z"></path><path class="uuid-d4d8a319-6e80-42b6-9c48-61af2560d505" d="M61.46,73.12c.04.17,0,.24-.09.19-.01-.08.02-.21-.02-.28.02-.07.06-.13.11-.19.02.09-.03.19,0,.28Z"></path><path class="uuid-aff03e0e-8d3a-41be-a3fb-eb85228dd131" d="M61.75,74.99c-.08.02-.17.01-.19-.06s0-.14,0-.22l-.19-1.4c.07-.03.1-.11.09-.19.17.6.19,1.24.3,1.87h0Z"></path><path class="uuid-91ac18f2-1b70-492d-89e5-0464fb1112ff" d="M52.62,89.9c.04.07.16.21.07.29.04.16.03.29-.02.39-.43.28-.75.71-1.22.93-.11-.03-.25.03-.36,0l-.37-.3s-.06-.01-.08,0l-.29-1.02c-.06-.22.01-.4.14-.53-.12-.26.49-.66.7-.47.09-.18.27-.19.55-.05.45.14.82.3.87.78h0Z"></path><path class="uuid-47392638-6c85-469a-9375-cb54ae0f214f" d="M52.5,87.49c.07-.18.14-.15.2.09l.73,1.03c-.21.22-1.05,1-.8,1.29-.26-.41-.97-.65-1.42-.73-.24-.12-.2-.38.05-.48l-.04-.9.16-.04c0-.07-.02-.17.03-.2.17-.09,1-.31,1.09-.08h0Z"></path><path class="uuid-01ef43cc-4abc-461c-adc4-6bd3626dbfec" d="M52.87,90.58c-.05-.03-.13.01-.19,0-.05-.15-.1-.27.02-.39.09.11.11.26.17.38h0Z"></path><path class="uuid-91ac18f2-1b70-492d-89e5-0464fb1112ff" d="M50.54,87.58c.11-.02.21.09.28.19.38-.09.52.18.42.79l.03.14c-.03.16,0,.32-.05.48l-.7.47c-.49.32-.48-.07-1.17-.21-.18-.02-.17-.31-.1-.45l-.09-.28c-.08-.22-.08-.38,0-.46l1.02-.65c.1-.13.26-.11.37,0h0Z"></path><path class="uuid-20500e84-c255-4b46-8bdb-d3790e81faac" d="M49.33,89.44c-.06-.01-.14.02-.2,0,.07-.14-.08-.39.1-.47.01.16-.01.33.1.45h0Z"></path><path class="uuid-224a27a1-c753-42ff-ba70-7b8cb40c900d" d="M67.24,68.35c.14-.02.17.08.28.12h-.47c-.14.04-.35.07-.28-.1.15.02.32,0,.47-.02Z"></path><path class="uuid-29ca34aa-dd6e-4712-b37d-b4cb61e122a2" d="M52.69,87.58l-.2-.09c-.17-.2-.14-.4.12-.5.03,0,.06.01.09,0-.02.19-.02.39,0,.58h0Z"></path><path class="uuid-0a2e8045-98c7-4d9a-b77a-58e5c2c9a89e" d="M66.78,68.37c.04.11.18.1.28.09.26.07-1.67.19-1.49.19-.13-.03-.25-.06-.37-.09-.29-.09,1.73-.17,1.59-.19Z"></path><path class="uuid-f07a3d75-944b-42f7-93c5-84542fb3201b" d="M64.72,68.55l.28.09c-.19.17-.57.16-.75-.02.11-.13.31-.07.47-.07Z"></path><path class="uuid-0293abe4-eca5-4a70-aa14-ed06843535ca" d="M65.19,68.55c.13,0,.31-.05.37.09h-.56c-.1,0-.24.03-.28-.09h.47Z"></path><path class="uuid-ffffb8a5-e0ba-4f38-845f-6dbada134e3c" d="M51,86.56c.25-.07.61-.1.85,0,.28.06.61.21.77.43-.02.17-.03.35-.12.5l-1.12.28-.14.19c-.09-.13-.23-.23-.42-.28-.1.03-.22-.09-.28-.19-.1.07-.26.05-.26-.09.03-.27-.05-.58.14-.79.04,0,.08-.02.12-.02.16-.01.32-.02.47-.02h0Z"></path><path class="uuid-fd3c1f04-9795-489c-9276-84f9a4814aba" d="M49.14,88.24v.46c-.06-.16-.14-.31-.19-.47.06.01.13,0,.19,0Z"></path><path class="uuid-24ecd645-ba04-4d59-a356-635ee854a3ec" d="M50.54,87.49c.07.03.07.06,0,.09-.11-.03-.26.02-.37,0,.03-.07.07-.13.11-.19.08.05.17.08.26.09h0Z"></path><path class="uuid-b5934701-30c1-447a-a368-5dd3137e1dbe" d="M51.1,91.5c-.15-.05-.32-.14-.37-.3.17.03.39.09.37.3Z"></path><path class="uuid-07d19e7f-81f3-4403-9381-526f43ad9485" d="M51.75,86.46s.13.05.1.1c-.25-.06-.6.01-.85,0-.08-.03-.08-.06,0-.09h.75Z"></path><path class="uuid-b6fec43d-cb16-4a6e-806d-199b6041ebdc" d="M51,86.46v.09c-.13.03-.33.2-.47.02.15-.07.3-.12.47-.12Z"></path><path class="uuid-24ecd645-ba04-4d59-a356-635ee854a3ec" d="M51.38,87.77c-.17.28-.06.62-.11.94-.2-.02.08-.73-.18-.86-.07-.03-.17-.05-.26-.07-.07-.03-.07-.06,0-.09.18,0,.38.13.56.09h0Z"></path><path class="uuid-ef1c38e3-d0ca-4021-8109-8bc4303f283d" d="M50.82,87.68v.09c-.12-.02-.19-.12-.28-.19v-.09c.11.02.2.13.28.19Z"></path></svg>